<svg width="24.000000" height="24.000000" viewBox="0 0 24 24" fill="none" xmlns="http://www.w3.org/2000/svg" xmlns:xlink="http://www.w3.org/1999/xlink">
	<desc>
			Created with Pixso.
	</desc>
	<defs>
		<clipPath id="clip85_1452">
			<rect id="Fill=True" rx="-0.500000" width="23.000000" height="23.000000" transform="translate(0.500000 0.500000)" fill="white" fill-opacity="0"/>
		</clipPath>
	</defs>
	<rect id="Fill=True" rx="-0.500000" width="23.000000" height="23.000000" transform="translate(0.500000 0.500000)" fill="#FFFFFF" fill-opacity="0"/>
	<g clip-path="url(#clip85_1452)">
		<path id="Vector" d="M20.25 21C20.15 21 20.05 20.98 19.96 20.94C19.87 20.9 19.78 20.84 19.72 20.78L3.22 4.28C3.08 4.13 3.01 3.94 3.01 3.75C3.01 3.55 3.09 3.37 3.23 3.23C3.37 3.09 3.55 3.01 3.75 3.01C3.94 3.01 4.13 3.08 4.27 3.21L20.77 19.71C20.88 19.82 20.95 19.95 20.98 20.1C21.01 20.24 21 20.39 20.94 20.53C20.88 20.67 20.78 20.79 20.66 20.87C20.54 20.95 20.39 20.99 20.25 21ZM11.62 14.8L9.19 12.37C9.18 12.36 9.16 12.35 9.14 12.35C9.12 12.34 9.1 12.35 9.08 12.36C9.07 12.36 9.05 12.38 9.04 12.4C9.03 12.41 9.03 12.43 9.03 12.45C9.13 13.08 9.43 13.66 9.88 14.11C10.33 14.57 10.91 14.86 11.54 14.96C11.56 14.96 11.58 14.96 11.6 14.95C11.61 14.94 11.63 14.93 11.64 14.91C11.65 14.89 11.65 14.87 11.65 14.85C11.64 14.83 11.63 14.81 11.62 14.8ZM12.37 9.19L14.8 11.62C14.82 11.63 14.83 11.64 14.85 11.65C14.87 11.65 14.89 11.65 14.91 11.64C14.93 11.63 14.94 11.62 14.95 11.6C14.96 11.58 14.96 11.56 14.96 11.54C14.86 10.91 14.57 10.33 14.12 9.88C13.66 9.42 13.08 9.13 12.45 9.03C12.43 9.03 12.41 9.03 12.39 9.04C12.38 9.05 12.36 9.06 12.35 9.08C12.34 9.1 12.34 9.12 12.34 9.14C12.35 9.16 12.36 9.18 12.37 9.19Z" fill="#000000" fill-opacity="1.000000" fill-rule="nonzero"/>
		<path id="Vector" d="M22.51 12.81C22.66 12.57 22.75 12.28 22.75 11.99C22.75 11.7 22.66 11.42 22.51 11.18C21.3 9.26 19.72 7.63 17.96 6.47C16.01 5.18 13.85 4.5 11.73 4.5C10.61 4.5 9.5 4.68 8.44 5.05C8.41 5.06 8.38 5.08 8.36 5.1C8.34 5.12 8.33 5.15 8.32 5.18C8.31 5.21 8.31 5.25 8.32 5.28C8.33 5.31 8.34 5.34 8.37 5.36L10.53 7.57C10.55 7.6 10.58 7.61 10.61 7.62C10.64 7.63 10.67 7.63 10.71 7.62C11.44 7.44 12.21 7.45 12.93 7.66C13.66 7.87 14.33 8.27 14.86 8.81C15.39 9.36 15.78 10.04 15.99 10.78C16.19 11.52 16.2 12.31 16.02 13.06C16.01 13.09 16.01 13.12 16.02 13.16C16.03 13.19 16.05 13.22 16.07 13.24L19.18 16.43C19.22 16.46 19.26 16.48 19.31 16.48C19.35 16.48 19.4 16.47 19.43 16.44C20.63 15.39 21.67 14.17 22.51 12.81ZM11.75 16.5C11.08 16.5 10.42 16.34 9.82 16.04C9.22 15.75 8.7 15.31 8.29 14.78C7.87 14.24 7.59 13.62 7.44 12.95C7.3 12.29 7.31 11.6 7.47 10.93C7.48 10.9 7.48 10.87 7.47 10.84C7.46 10.81 7.44 10.78 7.42 10.76L4.36 7.62C4.33 7.59 4.28 7.57 4.24 7.57C4.19 7.56 4.14 7.58 4.11 7.61C2.99 8.59 1.95 9.77 1.01 11.16C0.84 11.4 0.75 11.69 0.75 11.99C0.74 12.28 0.82 12.58 0.98 12.83C2.19 14.76 3.75 16.39 5.48 17.54C7.44 18.84 9.54 19.5 11.73 19.5C12.86 19.49 13.98 19.31 15.06 18.95C15.09 18.94 15.12 18.93 15.14 18.9C15.16 18.88 15.17 18.85 15.18 18.82C15.19 18.79 15.19 18.76 15.18 18.72C15.17 18.69 15.16 18.67 15.13 18.64L12.96 16.42C12.93 16.39 12.91 16.38 12.88 16.37C12.84 16.36 12.81 16.36 12.78 16.37C12.44 16.45 12.09 16.5 11.75 16.5Z" fill="#000000" fill-opacity="1.000000" fill-rule="nonzero"/>
	</g>
</svg>
