<svg width="32" height="32" viewBox="0 0 32 32" fill="none" xmlns="http://www.w3.org/2000/svg">
<rect width="32" height="32" rx="4" fill="#EBF6F2"/>
<path d="M11.9578 9.95903C11.2428 9.24403 11.2428 8.07986 11.9578 7.36486C12.6728 6.64986 13.837 6.64986 14.552 7.36486C15.267 8.07986 15.267 9.24403 14.552 9.95903C13.8278 10.6832 12.6728 10.6832 11.9578 9.95903ZM10.5003 19.6665V12.3332C10.5003 11.829 10.0878 11.4165 9.58366 11.4165C9.07949 11.4165 8.66699 11.829 8.66699 12.3332V19.6665C8.66699 22.1965 10.7203 24.2499 13.2503 24.2499H17.8337C18.3378 24.2499 18.7503 23.8374 18.7503 23.3332C18.7503 22.829 18.3378 22.4165 17.8337 22.4165H13.2503C11.7287 22.4165 10.5003 21.1882 10.5003 19.6665ZM22.6737 22.7374L19.2178 19.2815C18.8787 18.9424 18.4112 18.7499 17.9253 18.7499H15.542V15.3765C16.5412 16.1924 17.9803 16.9349 19.392 17.2282C20.0062 17.3565 20.5837 16.8982 20.5837 16.2749C20.5837 15.789 20.2262 15.3949 19.7403 15.3124C18.4387 15.0924 17.1003 14.3865 16.3028 13.5065L15.0195 12.0857C14.8453 11.8932 14.6253 11.7374 14.387 11.6274C14.1212 11.499 13.8187 11.4165 13.507 11.4165H13.4795C12.3428 11.4165 11.417 12.3424 11.417 13.479V18.7499C11.417 20.2715 12.6453 21.4999 14.167 21.4999H18.8145L21.3628 24.0482C21.7203 24.4057 22.3162 24.4057 22.6737 24.0482C23.0403 23.6907 23.0403 23.104 22.6737 22.7374Z" fill="#8DD3BB"/>
</svg>
